<?xml version="1.0" encoding="UTF-8" standalone="no"?>
<svg
   xmlns:dc="http://purl.org/dc/elements/1.1/"
   xmlns:cc="http://creativecommons.org/ns#"
   xmlns:rdf="http://www.w3.org/1999/02/22-rdf-syntax-ns#"
   xmlns:svg="http://www.w3.org/2000/svg"
   xmlns="http://www.w3.org/2000/svg"
   version="1.1"
   id="svg4197"
   viewBox="0 0 399.99999 91.009029"
   height="91.009026"
   width="400">
  <defs
     id="defs4199">
    <clipPath
       id="clipPath222"
       clipPathUnits="userSpaceOnUse">
      <path
         id="path224"
         d="m 240,1995.15 302.671,0 0,69.7 -302.671,0 0,-69.7 z" />
    </clipPath>
  </defs>
  <metadata
     id="metadata4202">
    <rdf:RDF>
      <cc:Work
         rdf:about="">
        <dc:format>image/svg+xml</dc:format>
        <dc:type
           rdf:resource="http://purl.org/dc/dcmitype/StillImage" />
        <dc:title></dc:title>
      </cc:Work>
    </rdf:RDF>
  </metadata>
  <g
     transform="translate(88.570036,-109.47588)"
     id="layer1">
    <g
       style="fill:#000000"
       id="g218"
       transform="matrix(1.3257674,0,0,-1.3257674,-406.99696,2846.0568)">
      <g
         style="fill:#000000"
         id="g220"
         clip-path="url(#clipPath222)">
        <g
           style="fill:#000000"
           id="g226"
           transform="translate(335.8404,1998.9353)">
          <path
             d="M 0,0 C -3.815,0 -5.148,1.428 -5.339,16.397 -5.53,26.599 -12.393,32.032 -26.41,33.272 l 0,0.19 c 9.63,0.668 22.406,4.483 22.406,16.018 0,14.015 -16.971,15.732 -27.458,15.732 l -7.34,0 0,-1.678 6.96,0 c 8.102,0 11.821,-1.183 11.821,-13.005 C -19.735,38.61 -22.5,34.415 -33.464,33.845 l -5.338,0 0,-1.679 5.051,0 c 9.82,-0.19 13.538,-2.517 13.538,-17.865 0,-10.489 2.481,-17.734 12.681,-17.734 3.623,0 8.295,0.763 11.631,3.243 L 3.432,1.24 C 2.383,0.57 0.953,0 0,0"
             style="fill:#000000;fill-opacity:1;fill-rule:nonzero;stroke:none"
             id="path228" />
        </g>
        <g
           style="fill:#000000"
           id="g230"
           transform="translate(372.5116,2062.4297)">
          <path
             d="m 0,0 0,-63.687 0,-1.716 23.741,0 0,1.68 -8.867,0 0,63.763 3.908,0 c 12.393,0 15.541,-8.715 16.969,-19.203 l 1.717,0 0,20.881 L 0,1.718 0,0 Z"
             style="fill:#000000;fill-opacity:1;fill-rule:nonzero;stroke:none"
             id="path232" />
        </g>
        <g
           style="fill:#000000"
           id="g234"
           transform="translate(511.5695,2064.147)">
          <path
             d="m 0,0 -0.98,0 0,-1.678 0.98,0 c 7.341,0 14.3,-3.065 14.3,-31.881 0,-23.161 -3.145,-31.882 -14.3,-31.882 l -0.98,0 0,-1.679 0.98,0 c 16.875,0 30.698,16.51 30.318,33.561 C 30.318,-15.684 18.018,0 0,0"
             style="fill:#000000;fill-opacity:1;fill-rule:nonzero;stroke:none"
             id="path236" />
        </g>
        <g
           style="fill:#000000"
           id="g238"
           transform="translate(454.157,2032.3896)">
          <path
             d="m 0,0 0,0.195 c 9.34,0.989 19.585,3.108 19.585,15.798 0,13.804 -15.971,15.766 -26.459,15.766 l -7.06,0 0,-1.679 6.68,0 C 0.85,30.08 5.147,27.902 5.147,16.256 5.147,4.586 2.081,0.39 -8.875,0.39 l -5.059,0 0,-0.261 0,-1.417 4.772,0 4.366,0 c 8.104,0 12.109,-2.093 12.109,-15.03 0,-13.034 -2.816,-17.323 -13.73,-17.323 l -7.517,0 0,-1.718 7.232,0 c 0,0 4.85,-0.046 7.341,0.171 9.627,0.728 22.723,3.654 22.723,17.784 C 23.362,-4.077 10.238,-0.546 0,0"
             style="fill:#000000;fill-opacity:1;fill-rule:nonzero;stroke:none"
             id="path240" />
        </g>
        <g
           style="fill:#000000"
           id="g242"
           transform="translate(246.5921,2064.147)">
          <path
             d="m 0,0 -5.169,-13.93 -1.24,-3.344 9.569,-27.1 -9.569,0 0,-1.676 10.334,0 6.99,-19.391 -7.658,0 0,-1.677 28.528,0 0,1.677 -4.692,0 L 1.677,0 0,0 Z"
             style="fill:#000000;fill-opacity:1;fill-rule:nonzero;stroke:none"
             id="path244" />
        </g>
      </g>
    </g>
  </g>
</svg>
